<svg width="21" height="19" viewBox="0 0 21 19" fill="none" xmlns="http://www.w3.org/2000/svg">
<path d="M9.91088 0.252267C10.0939 0.0897557 10.3301 0 10.5749 0C10.8196 0 11.0559 0.0897557 11.2389 0.252267L20.2389 8.25227C20.427 8.43098 20.5383 8.67583 20.5493 8.93509C20.5602 9.19434 20.4699 9.4477 20.2976 9.64165C20.1252 9.83559 19.8841 9.95493 19.6254 9.97445C19.3666 9.99397 19.1104 9.91215 18.9109 9.74627L18.5749 9.44927V16.9993C18.5749 17.5297 18.3642 18.0384 17.9891 18.4135C17.614 18.7886 17.1053 18.9993 16.5749 18.9993H4.57488C4.04445 18.9993 3.53574 18.7886 3.16066 18.4135C2.78559 18.0384 2.57488 17.5297 2.57488 16.9993V9.44927L2.23888 9.74627C2.03934 9.91215 1.78313 9.99397 1.52438 9.97445C1.26563 9.95493 1.02459 9.83559 0.852201 9.64165C0.679807 9.4477 0.589552 9.19434 0.600501 8.93509C0.61145 8.67583 0.722746 8.43098 0.910878 8.25227L9.91088 0.252267ZM4.57488 7.66927V16.9993H7.57488V11.9993C7.57488 11.7341 7.68023 11.4797 7.86777 11.2922C8.05531 11.1046 8.30966 10.9993 8.57488 10.9993H12.5749C12.8401 10.9993 13.0944 11.1046 13.282 11.2922C13.4695 11.4797 13.5749 11.7341 13.5749 11.9993V16.9993H16.5749V7.67027L10.5749 2.33727L4.57488 7.66927ZM11.5749 16.9993V12.9993H9.57488V16.9993H11.5749Z" fill="black"/>
</svg>
