<svg width="13" height="16" viewBox="0 0 13 16" fill="none" xmlns="http://www.w3.org/2000/svg">
<path d="M9.59961 7.75V8.625C9.59961 8.84375 9.41211 9 9.22461 9H3.97461C3.75586 9 3.59961 8.84375 3.59961 8.625V7.75C3.59961 7.5625 3.75586 7.375 3.97461 7.375H9.22461C9.41211 7.375 9.59961 7.5625 9.59961 7.75ZM9.22461 10C9.41211 10 9.59961 10.1875 9.59961 10.375V11.25C9.59961 11.4688 9.41211 11.625 9.22461 11.625H3.97461C3.75586 11.625 3.59961 11.4688 3.59961 11.25V10.375C3.59961 10.1875 3.75586 10 3.97461 10H9.22461ZM12.5996 4.125V14.5C12.5996 15.3438 11.9121 16 11.0996 16H2.09961C1.25586 16 0.599609 15.3438 0.599609 14.5V1.5C0.599609 0.6875 1.25586 0 2.09961 0H8.47461C8.84961 0 9.25586 0.1875 9.53711 0.46875L12.1309 3.0625C12.4121 3.34375 12.5996 3.75 12.5996 4.125ZM8.59961 1.625V4H10.9746L8.59961 1.625ZM11.0996 14.5V5.5H7.84961C7.41211 5.5 7.09961 5.1875 7.09961 4.75V1.5H2.09961V14.5H11.0996Z" fill="black"/>
</svg>
