<svg width="21" height="16" viewBox="0 0 21 16" fill="none" xmlns="http://www.w3.org/2000/svg">
<path d="M20.0996 13C20.3496 13 20.5996 13.25 20.5996 13.5V14C20.5996 15.125 19.6934 16 18.5996 16H2.59961C1.47461 16 0.599609 15.125 0.599609 14V13.5C0.599609 13.25 0.818359 13 1.09961 13H8.56836C8.53711 13.4688 9.00586 14 9.59961 14H11.4746C12.0371 14 12.4746 13.625 12.5059 13H20.0996ZM18.5996 1.5V12H2.59961V1.5C2.59961 0.6875 3.25586 0 4.09961 0H17.0996C17.9121 0 18.5996 0.6875 18.5996 1.5ZM16.5996 10V2H4.59961V10H16.5996Z" fill="#191C24"/>
</svg>
