<svg width="19" height="23" viewBox="0 0 19 23" fill="none" xmlns="http://www.w3.org/2000/svg">
<path fill-rule="evenodd" clip-rule="evenodd" d="M9.49941 0.302124C8.18714 0.302124 6.92862 0.823421 6.0007 1.75134C5.07279 2.67925 4.55149 3.93777 4.55149 5.25004C4.55149 6.56231 5.07279 7.82083 6.0007 8.74875C6.92862 9.67666 8.18714 10.198 9.49941 10.198C10.8117 10.198 12.0702 9.67666 12.9981 8.74875C13.926 7.82083 14.4473 6.56231 14.4473 5.25004C14.4473 3.93777 13.926 2.67925 12.9981 1.75134C12.0702 0.823421 10.8117 0.302124 9.49941 0.302124ZM6.11399 5.25004C6.11399 4.35217 6.47067 3.49108 7.10556 2.85619C7.74044 2.2213 8.60154 1.86462 9.49941 1.86462C10.3973 1.86462 11.2584 2.2213 11.8933 2.85619C12.5281 3.49108 12.8848 4.35217 12.8848 5.25004C12.8848 6.14791 12.5281 7.009 11.8933 7.64389C11.2584 8.27878 10.3973 8.63546 9.49941 8.63546C8.60154 8.63546 7.74044 8.27878 7.10556 7.64389C6.47067 7.009 6.11399 6.14791 6.11399 5.25004ZM9.49941 11.7605C7.09003 11.7605 4.8692 12.3084 3.22441 13.2334C1.60357 14.1459 0.384824 15.5271 0.384824 17.2292V17.3355C0.383782 18.5459 0.38274 20.0646 1.71503 21.15C2.37024 21.6834 3.28795 22.0636 4.52753 22.3136C5.7692 22.5657 7.38899 22.698 9.49941 22.698C11.6098 22.698 13.2286 22.5657 14.4723 22.3136C15.7119 22.0636 16.6286 21.6834 17.2848 21.15C18.6171 20.0646 18.615 18.5459 18.614 17.3355V17.2292C18.614 15.5271 17.3952 14.1459 15.7754 13.2334C14.1296 12.3084 11.9098 11.7605 9.49941 11.7605ZM1.94732 17.2292C1.94732 16.3428 2.59524 15.3803 3.99003 14.5959C5.36087 13.825 7.3067 13.323 9.50045 13.323C11.6921 13.323 13.6379 13.825 15.0088 14.5959C16.4046 15.3803 17.0515 16.3428 17.0515 17.2292C17.0515 18.5917 17.0098 19.3584 16.2973 19.9375C15.9119 20.2521 15.2661 20.5594 14.1619 20.7823C13.0609 21.0052 11.5557 21.1355 9.49941 21.1355C7.44316 21.1355 5.93691 21.0052 4.83691 20.7823C3.73274 20.5594 3.08691 20.2521 2.70149 19.9386C1.98899 19.3584 1.94732 18.5917 1.94732 17.2292Z" fill="black"/>
</svg>
